<svg version="1.1" id="Layer_1" xmlns="http://www.w3.org/2000/svg" xmlns:xlink="http://www.w3.org/1999/xlink" x="0px" y="0px"
	 width="100%" viewBox="0 0 200 200" enable-background="new 0 0 200 200" xml:space="preserve">
<path fill="#010101" opacity="1.000000" stroke="none" 
	d="
M201.000000,19.000000 
	C201.000000,73.354225 201.000000,127.708458 200.640289,182.639175 
	C198.176788,192.696625 191.190521,197.433380 183.000000,201.000000 
	C128.645767,201.000000 74.291542,201.000000 19.360821,200.640274 
	C9.303377,198.176788 4.566617,191.190521 1.000000,183.000000 
	C1.000000,128.645767 1.000000,74.291542 1.359730,19.360821 
	C3.823211,9.303367 10.809493,4.566628 19.000000,1.000000 
	C58.687561,1.000000 98.375122,1.000000 138.858154,1.357543 
	C138.987564,2.084052 138.362137,2.635759 137.649246,2.794364 
	C128.108841,4.916970 118.305367,6.216584 109.062004,9.235502 
	C92.834221,14.535569 76.947578,20.880144 60.918045,26.787228 
	C61.086052,27.298660 61.254059,27.810093 61.422070,28.321524 
	C63.145077,27.941114 64.895790,27.655895 66.586342,27.163952 
	C74.227585,24.940392 81.775520,22.343248 89.500450,20.472857 
	C100.489578,17.812124 111.598122,15.473516 123.005051,17.917433 
	C132.875183,20.032091 137.335281,25.888849 136.458618,35.991913 
	C132.682571,36.617302 129.326828,37.240368 125.597046,37.868240 
	C103.894066,45.830666 97.148682,71.088531 111.688583,88.462463 
	C104.425888,97.213814 97.268089,105.662102 89.925323,113.817078 
	C84.035149,107.839149 77.260010,104.536270 68.721512,104.161781 
	C66.226707,104.321579 64.134521,104.582062 61.638569,104.815872 
	C40.203205,108.153137 27.552225,133.537537 41.063652,154.502930 
	C29.885756,158.514313 26.000378,155.541779 27.024830,144.201080 
	C27.173525,142.555023 27.703804,140.945282 27.884626,139.299728 
	C28.030071,137.976105 27.914061,136.623749 27.914061,135.284149 
	C27.295818,135.134460 26.677574,134.984787 26.059332,134.835114 
	C22.161299,145.135468 17.676682,155.261383 14.545793,165.789871 
	C11.912330,174.645615 16.798464,178.765274 25.493822,175.283005 
	C31.906879,172.714706 38.264355,169.475784 43.835224,165.420929 
	C86.636490,134.267441 122.998070,96.815620 151.740616,52.301052 
	C157.141861,43.935959 161.018219,34.285950 163.997467,24.729809 
	C168.159470,11.379882 160.982483,3.828213 150.261749,2.785466 
	C149.787766,2.739365 149.418198,1.619633 149.000000,1.000000 
	C160.020889,1.000000 171.041794,1.000000 182.639175,1.359726 
	C192.696625,3.823213 197.433380,10.809482 201.000000,19.000000 
M167.221451,68.178680 
	C167.113297,66.781776 167.005142,65.384872 166.997086,63.230572 
	C166.385742,61.129265 165.774399,59.027958 165.111649,56.219864 
	C164.238098,55.133846 163.364532,54.047829 162.240982,52.651005 
	C159.826187,56.522522 157.858017,59.677990 155.308823,63.155571 
	C154.224930,64.811180 153.141022,66.466782 151.525467,68.451859 
	C150.459564,69.965515 149.393661,71.479172 147.843384,73.388847 
	C147.520325,73.911453 147.197250,74.434059 146.329483,75.196785 
	C145.907288,75.853920 145.485077,76.511055 144.557434,77.461128 
	C144.018326,78.261299 143.479218,79.061462 142.376297,80.147774 
	C141.521820,81.322937 140.667358,82.498093 139.219025,84.009430 
	C135.353897,88.493309 131.488754,92.977196 127.552544,97.543549 
	C137.482422,102.067612 151.910233,97.644241 160.231400,87.546288 
	C161.117203,86.027031 162.003021,84.507782 163.220306,82.366875 
	C163.854431,80.911766 164.488556,79.456657 165.478363,77.432617 
	C165.909180,75.951698 166.339996,74.470779 166.989288,72.211029 
	C166.994720,71.139511 167.000168,70.067986 167.221451,68.178680 
M154.769669,110.392296 
	C153.254440,109.556953 151.739197,108.721611 149.827896,107.319092 
	C148.312485,106.825287 146.797089,106.331482 144.695648,105.299103 
	C142.867706,104.982117 141.039764,104.665131 138.481750,104.096672 
	C136.671280,104.154266 134.860794,104.211853 132.342834,104.124786 
	C130.513458,104.565453 128.684082,105.006119 126.215851,105.525452 
	C125.436203,105.843430 124.656555,106.161407 123.165031,106.683884 
	C121.833076,107.352203 120.443573,107.926765 119.178177,108.703514 
	C107.998192,115.566208 102.059807,128.766785 104.530022,141.168839 
	C107.174164,154.444168 117.212959,164.629013 129.854980,166.862259 
	C142.993195,169.183151 155.848663,163.439850 162.245148,152.354370 
	C162.245148,152.354370 162.250336,152.317001 162.751556,152.069672 
	C162.858688,151.720810 162.965836,151.371948 163.575455,150.678940 
	C163.871246,149.932373 164.167023,149.185806 164.353958,148.414230 
	C164.353958,148.414230 164.452087,148.360870 164.852097,148.026001 
	C164.890671,147.687286 164.929245,147.348557 165.417618,146.444519 
	C165.622742,145.286575 165.827866,144.128647 166.130417,142.194153 
	C166.419922,140.461731 166.709427,138.729309 167.215927,136.156036 
	C167.084976,134.432068 166.954041,132.708084 166.906494,130.239563 
	C166.390594,128.588516 165.874695,126.937454 165.272736,124.637360 
	C164.584122,123.288597 163.895493,121.939827 163.084488,119.932144 
	C160.409546,116.948883 157.734604,113.965622 154.769669,110.392296 
M97.969879,60.499569 
	C97.895782,60.327061 97.821678,60.154552 97.716599,59.279823 
	C96.475388,56.845009 95.234177,54.410194 93.449867,51.578449 
	C92.278786,49.729828 91.107712,47.881207 89.724403,45.404419 
	C87.620232,43.870106 85.516060,42.335793 82.975677,40.216946 
	C69.630058,33.329685 55.713707,34.949890 45.523193,44.577343 
	C35.622074,53.931389 32.727432,68.559853 38.350201,80.826942 
	C44.079910,93.327332 56.586132,100.315285 70.944138,99.039062 
	C88.393829,97.488037 102.274323,78.992897 98.164474,62.262016 
	C98.068398,61.859673 97.972321,61.457333 97.969879,60.499569 
M97.959045,143.227997 
	C99.009392,138.282410 99.742012,133.354843 97.675179,128.620438 
	C83.108994,140.763397 68.863190,152.639252 54.614357,164.517639 
	C71.804329,172.565125 91.057571,163.422897 97.959045,143.227997 
z"/>
<path fill="#F9F9F9" opacity="1.000000" stroke="none" 
	d="
M136.878937,35.989594 
	C137.335281,25.888849 132.875183,20.032091 123.005051,17.917433 
	C111.598122,15.473516 100.489578,17.812124 89.500450,20.472857 
	C81.775520,22.343248 74.227585,24.940392 66.586342,27.163952 
	C64.895790,27.655895 63.145077,27.941114 61.422070,28.321524 
	C61.254059,27.810093 61.086052,27.298660 60.918045,26.787228 
	C76.947578,20.880144 92.834221,14.535569 109.062004,9.235502 
	C118.305367,6.216584 128.108841,4.916970 137.649246,2.794364 
	C138.362137,2.635759 138.987564,2.084052 139.326813,1.357543 
	C142.030594,1.000000 145.061188,1.000000 148.545898,1.000000 
	C149.418198,1.619633 149.787766,2.739365 150.261749,2.785466 
	C160.982483,3.828213 168.159470,11.379882 163.997467,24.729809 
	C161.018219,34.285950 157.141861,43.935959 151.740616,52.301052 
	C122.998070,96.815620 86.636490,134.267441 43.835224,165.420929 
	C38.264355,169.475784 31.906879,172.714706 25.493822,175.283005 
	C16.798464,178.765274 11.912330,174.645615 14.545793,165.789871 
	C17.676682,155.261383 22.161299,145.135468 26.059332,134.835114 
	C26.677574,134.984787 27.295818,135.134460 27.914061,135.284149 
	C27.914061,136.623749 28.030071,137.976105 27.884626,139.299728 
	C27.703804,140.945282 27.173525,142.555023 27.024830,144.201080 
	C26.000378,155.541779 29.885756,158.514313 41.408272,154.468811 
	C51.028301,147.772720 60.018066,141.391861 69.313179,134.915588 
	C70.802994,133.603485 71.987457,132.386795 73.474815,131.037735 
	C75.282333,129.283035 76.786949,127.660713 78.606781,125.988548 
	C81.285141,123.325066 83.648285,120.711433 86.304077,117.960190 
	C87.767914,116.585175 88.939102,115.347771 90.110291,114.110382 
	C97.268089,105.662102 104.425888,97.213814 111.964455,88.241791 
	C116.935471,80.527100 121.525711,73.336143 126.397530,65.938744 
	C131.501007,56.305710 136.437393,46.918373 136.878937,35.989594 
z"/>
<path fill="#FFFFFF" opacity="1.000000" stroke="none" 
	d="
M18.530293,1.000000 
	C10.809493,4.566628 3.823211,9.303367 1.359730,18.892162 
	C1.000000,13.074268 1.000000,7.148537 1.000000,1.000000 
	C6.684937,1.000000 12.372760,1.000000 18.530293,1.000000 
z"/>
<path fill="#FFFFFF" opacity="1.000000" stroke="none" 
	d="
M183.469711,201.000000 
	C191.190521,197.433380 198.176788,192.696625 200.640289,183.107834 
	C201.000000,188.925735 201.000000,194.851456 201.000000,201.000000 
	C195.315063,201.000000 189.627243,201.000000 183.469711,201.000000 
z"/>
<path fill="#FFFFFF" opacity="1.000000" stroke="none" 
	d="
M1.000000,183.469711 
	C4.566617,191.190521 9.303377,198.176788 18.892162,200.640274 
	C13.074268,201.000000 7.148537,201.000000 1.000000,201.000000 
	C1.000000,195.315063 1.000000,189.627243 1.000000,183.469711 
z"/>
<path fill="#FFFFFF" opacity="1.000000" stroke="none" 
	d="
M201.000000,18.530293 
	C197.433380,10.809482 192.696625,3.823213 183.107834,1.359726 
	C188.925735,1.000000 194.851456,1.000000 201.000000,1.000000 
	C201.000000,6.684937 201.000000,12.372760 201.000000,18.530293 
z"/>
<path fill="#F38635" opacity="1.000000" stroke="none" 
	d="
M98.082542,62.878361 
	C102.274323,78.992897 88.393829,97.488037 70.944138,99.039062 
	C56.586132,100.315285 44.079910,93.327332 38.350201,80.826942 
	C32.727432,68.559853 35.622074,53.931389 45.523193,44.577343 
	C55.713707,34.949890 69.630058,33.329685 82.779839,40.572025 
	C79.638832,42.535419 76.246384,43.653564 73.838531,45.850716 
	C68.256271,50.944496 68.299385,59.626740 73.409981,64.893448 
	C79.483200,71.152184 87.238678,71.620895 93.323128,66.207840 
	C94.759827,64.929672 96.488297,63.979446 98.082542,62.878361 
z"/>
<path fill="#01ADED" opacity="1.000000" stroke="none" 
	d="
M162.279083,152.376450 
	C155.848663,163.439850 142.993195,169.183151 129.854980,166.862259 
	C117.212959,164.629013 107.174164,154.444168 104.530022,141.168839 
	C102.059807,128.766785 107.998192,115.566208 119.178177,108.703514 
	C120.443573,107.926765 121.833076,107.352203 123.527542,107.006653 
	C123.257202,113.133469 121.759346,118.999146 122.167610,124.729012 
	C123.079041,137.520966 132.880905,148.484314 145.492111,151.146805 
	C150.931839,152.295242 156.674210,152.010254 162.279083,152.376450 
z"/>
<path fill="#02A85A" opacity="1.000000" stroke="none" 
	d="
M69.007828,135.011017 
	C60.018066,141.391861 51.028301,147.772720 41.693916,154.187683 
	C27.552225,133.537537 40.203205,108.153137 61.600960,105.198318 
	C55.972439,115.615410 57.315670,126.624710 67.521530,133.079544 
	C68.166252,133.487320 68.519157,134.356491 69.007828,135.011017 
z"/>
<path fill="#00A557" opacity="1.000000" stroke="none" 
	d="
M97.876595,143.628937 
	C91.057571,163.422897 71.804329,172.565125 54.614357,164.517639 
	C68.863190,152.639252 83.108994,140.763397 97.675179,128.620438 
	C99.742012,133.354843 99.009392,138.282410 97.876595,143.628937 
z"/>
<path fill="#E92A8F" opacity="1.000000" stroke="none" 
	d="
M126.115952,66.145180 
	C121.525711,73.336143 116.935471,80.527100 112.069359,87.938728 
	C97.148682,71.088531 103.894066,45.830666 125.600487,38.268494 
	C125.661896,39.754959 125.394089,40.862724 125.022110,41.934334 
	C122.169075,50.153458 121.620743,58.261230 126.115952,66.145180 
z"/>
<path fill="#78D3F5" opacity="1.000000" stroke="none" 
	d="
M133.050323,104.269440 
	C134.860794,104.211853 136.671280,104.154266 138.719971,104.589256 
	C137.945251,106.587486 136.909180,108.078171 135.923386,109.601379 
	C131.619019,116.252388 132.053894,126.333923 136.888626,132.337952 
	C143.129257,140.087891 151.902634,142.927002 160.163986,139.817642 
	C162.469589,138.949890 164.722092,137.941025 166.998947,136.996887 
	C166.709427,138.729309 166.419922,140.461731 165.696869,142.633972 
	C163.845871,143.544861 162.434601,144.035614 161.009995,144.483963 
	C145.683701,149.307587 131.235489,138.743118 128.664764,125.058929 
	C127.187965,117.197853 129.706390,110.795113 133.050323,104.269440 
z"/>
<path fill="#97DDF7" opacity="1.000000" stroke="none" 
	d="
M167.107437,136.576462 
	C164.722092,137.941025 162.469589,138.949890 160.163986,139.817642 
	C151.902634,142.927002 143.129257,140.087891 136.888626,132.337952 
	C132.053894,126.333923 131.619019,116.252388 135.923386,109.601379 
	C136.909180,108.078171 137.945251,106.587486 139.085007,104.714996 
	C141.039764,104.665131 142.867706,104.982117 144.691315,105.760971 
	C143.503082,107.603508 142.342468,109.004990 141.131042,110.361099 
	C136.851761,115.151527 136.954544,120.946190 138.872711,126.240044 
	C140.917374,131.882980 145.189407,135.416901 151.892349,136.180038 
	C158.038330,136.879761 162.194153,133.670670 166.823090,130.984116 
	C166.954041,132.708084 167.084976,134.432068 167.107437,136.576462 
z"/>
<path fill="#45C4F2" opacity="1.000000" stroke="none" 
	d="
M132.696579,104.197113 
	C129.706390,110.795113 127.187965,117.197853 128.664764,125.058929 
	C131.235489,138.743118 145.683701,149.307587 161.009995,144.483963 
	C162.434601,144.035614 163.845871,143.544861 165.648163,143.022247 
	C165.827866,144.128647 165.622742,145.286575 164.974472,146.888519 
	C164.504913,147.675308 164.478500,148.018097 164.452087,148.360870 
	C164.452087,148.360870 164.353958,148.414230 163.965118,148.323853 
	C160.109482,148.491943 156.614029,148.550461 153.180832,149.042969 
	C137.146744,151.343201 120.456017,131.515549 124.920357,115.169067 
	C125.788742,111.989372 126.221184,108.690628 126.854713,105.446793 
	C128.684082,105.006119 130.513458,104.565453 132.696579,104.197113 
z"/>
<path fill="#E6268C" opacity="1.000000" stroke="none" 
	d="
M159.702362,87.978149 
	C151.910233,97.644241 137.482422,102.067612 127.552544,97.543549 
	C131.488754,92.977196 135.353897,88.493309 139.693253,84.190933 
	C146.121155,88.597214 152.970093,87.971657 159.702362,87.978149 
z"/>
<path fill="#F6A96F" opacity="1.000000" stroke="none" 
	d="
M98.123505,62.570190 
	C96.488297,63.979446 94.759827,64.929672 93.323128,66.207840 
	C87.238678,71.620895 79.483200,71.152184 73.409981,64.893448 
	C68.299385,59.626740 68.256271,50.944496 73.838531,45.850716 
	C76.246384,43.653564 79.638832,42.535419 82.997940,40.864292 
	C85.516060,42.335793 87.620232,43.870106 89.427734,45.707272 
	C88.173767,45.750462 87.220093,45.476425 86.258553,45.233528 
	C81.201736,43.956127 77.482674,46.676712 75.431519,50.459358 
	C74.085739,52.941170 74.173714,56.930344 75.114227,59.745014 
	C76.412537,63.630463 80.027824,65.221840 84.340858,65.057541 
	C91.118195,64.799370 94.042816,60.959518 93.992966,51.975380 
	C95.234177,54.410194 96.475388,56.845009 97.593735,59.746269 
	C97.605995,60.493473 97.741119,60.774231 97.876244,61.054989 
	C97.972321,61.457333 98.068398,61.859673 98.123505,62.570190 
z"/>
<path fill="#EF53A6" opacity="1.000000" stroke="none" 
	d="
M126.397530,65.938744 
	C121.620743,58.261230 122.169075,50.153458 125.022110,41.934334 
	C125.394089,40.862724 125.661896,39.754959 125.974518,38.263687 
	C129.326828,37.240368 132.682571,36.617302 136.458618,35.991913 
	C136.437393,46.918373 131.501007,56.305710 126.397530,65.938744 
z"/>
<path fill="#B0E5F8" opacity="1.000000" stroke="none" 
	d="
M166.864792,130.611847 
	C162.194153,133.670670 158.038330,136.879761 151.892349,136.180038 
	C145.189407,135.416901 140.917374,131.882980 138.872711,126.240044 
	C136.954544,120.946190 136.851761,115.151527 141.131042,110.361099 
	C142.342468,109.004990 143.503082,107.603508 144.984329,106.030258 
	C146.797089,106.331482 148.312485,106.825287 149.707336,107.757195 
	C148.558838,109.037407 147.551758,109.906624 146.499451,110.717125 
	C140.649521,115.222855 139.987808,123.336235 145.057495,128.556290 
	C150.956543,134.630325 160.041336,133.167053 165.358795,125.286400 
	C165.874695,126.937454 166.390594,128.588516 166.864792,130.611847 
z"/>
<path fill="#20B8EF" opacity="1.000000" stroke="none" 
	d="
M126.535278,105.486122 
	C126.221184,108.690628 125.788742,111.989372 124.920357,115.169067 
	C120.456017,131.515549 137.146744,151.343201 153.180832,149.042969 
	C156.614029,148.550461 160.109482,148.491943 164.019531,148.336365 
	C164.167023,149.185806 163.871246,149.932373 163.080826,150.986450 
	C162.474243,151.634979 162.362289,151.975983 162.250336,152.317001 
	C162.250336,152.317001 162.245148,152.354370 162.262115,152.365417 
	C156.674210,152.010254 150.931839,152.295242 145.492111,151.146805 
	C132.880905,148.484314 123.079041,137.520966 122.167610,124.729012 
	C121.759346,118.999146 123.257202,113.133469 123.883484,106.904404 
	C124.656555,106.161407 125.436203,105.843430 126.535278,105.486122 
z"/>
<path fill="#75CDA4" opacity="1.000000" stroke="none" 
	d="
M78.291573,126.038399 
	C76.786949,127.660713 75.282333,129.283035 73.270569,130.748611 
	C61.773228,125.517677 59.800987,113.283043 68.343147,106.039047 
	C68.786690,105.662903 68.872025,104.864357 69.124130,104.262466 
	C77.260010,104.536270 84.035149,107.839149 89.925323,113.817078 
	C88.939102,115.347771 87.767914,116.585175 86.292725,117.569305 
	C84.368027,110.522400 81.734131,107.956161 76.418190,107.991325 
	C71.714714,108.022438 68.433998,110.732697 67.299843,115.524162 
	C65.901848,121.430267 70.571518,125.897087 78.291573,126.038399 
z"/>
<path fill="#3CBB7F" opacity="1.000000" stroke="none" 
	d="
M68.721512,104.161781 
	C68.872025,104.864357 68.786690,105.662903 68.343147,106.039047 
	C59.800987,113.283043 61.773228,125.517677 72.967667,130.880997 
	C71.987457,132.386795 70.802994,133.603485 69.313179,134.915588 
	C68.519157,134.356491 68.166252,133.487320 67.521530,133.079544 
	C57.315670,126.624710 55.972439,115.615410 62.004730,105.224991 
	C64.134521,104.582062 66.226707,104.321579 68.721512,104.161781 
z"/>
<path fill="#C6EBF9" opacity="1.000000" stroke="none" 
	d="
M165.315765,124.961884 
	C160.041336,133.167053 150.956543,134.630325 145.057495,128.556290 
	C139.987808,123.336235 140.649521,115.222855 146.499451,110.717125 
	C147.551758,109.906624 148.558838,109.037407 149.905380,108.040787 
	C151.739197,108.721611 153.254440,109.556953 154.542847,110.735802 
	C153.374878,111.386803 152.443665,111.730026 151.490799,111.995560 
	C147.517334,113.102867 145.344879,115.852737 145.065109,119.810196 
	C144.773056,123.941689 147.233749,126.633919 150.758514,128.316757 
	C154.589478,130.145767 157.505127,128.256073 159.930832,125.500404 
	C161.219193,124.036804 162.127182,122.238358 163.206879,120.591064 
	C163.895493,121.939827 164.584122,123.288597 165.315765,124.961884 
z"/>
<path fill="#F9BE93" opacity="1.000000" stroke="none" 
	d="
M93.721420,51.776913 
	C94.042816,60.959518 91.118195,64.799370 84.340858,65.057541 
	C80.027824,65.221840 76.412537,63.630463 75.114227,59.745014 
	C74.173714,56.930344 74.085739,52.941170 75.431519,50.459358 
	C77.482674,46.676712 81.201736,43.956127 86.258553,45.233528 
	C87.220093,45.476425 88.173767,45.750462 89.533852,46.021355 
	C91.107712,47.881207 92.278786,49.729828 93.721420,51.776913 
M86.860023,48.251205 
	C84.635101,46.352627 82.592506,45.920071 80.963173,49.631069 
	C80.945274,50.062756 80.927376,50.494438 80.344994,51.203255 
	C79.565819,51.470436 78.786636,51.737614 77.257355,52.146214 
	C75.258530,54.977039 75.053650,57.633762 78.238358,60.417614 
	C78.438141,60.688591 78.697952,60.876671 79.259361,61.536774 
	C80.173569,61.703514 81.087784,61.870255 82.801224,62.027580 
	C83.866920,62.030739 84.932617,62.033897 86.345779,62.499176 
	C87.225075,61.993801 88.104362,61.488430 89.418701,60.763390 
	C89.689957,60.563931 89.878136,60.304256 90.656036,59.633724 
	C92.277252,56.930737 93.720497,54.243145 89.478615,51.792221 
	C88.990532,51.524296 88.502449,51.256371 87.811707,50.464130 
	C87.546730,49.969479 87.281754,49.474823 86.860023,48.251205 
z"/>
<path fill="#D8F1FA" opacity="1.000000" stroke="none" 
	d="
M163.145691,120.261597 
	C162.127182,122.238358 161.219193,124.036804 159.930832,125.500404 
	C157.505127,128.256073 154.589478,130.145767 150.758514,128.316757 
	C147.233749,126.633919 144.773056,123.941689 145.065109,119.810196 
	C145.344879,115.852737 147.517334,113.102867 151.490799,111.995560 
	C152.443665,111.730026 153.374878,111.386803 154.687851,111.030838 
	C157.734604,113.965622 160.409546,116.948883 163.145691,120.261597 
M149.268417,118.134689 
	C146.217148,121.699814 148.753418,124.325272 151.504181,125.323723 
	C153.247467,125.956482 156.962158,124.599007 157.908646,123.011108 
	C158.841568,121.445961 158.098007,117.918488 156.800308,116.262833 
	C155.550720,114.668564 152.495377,113.312500 150.778214,117.432961 
	C150.578918,117.706276 150.317886,117.893585 149.268417,118.134689 
z"/>
<path fill="#EA3695" opacity="1.000000" stroke="none" 
	d="
M159.966888,87.762222 
	C152.970093,87.971657 146.121155,88.597214 139.990189,84.022842 
	C140.667358,82.498093 141.521820,81.322937 142.733063,80.378784 
	C144.804565,81.403381 146.482346,82.767502 148.241058,82.881317 
	C153.105591,83.196152 158.003876,82.989204 162.888824,82.988525 
	C162.003021,84.507782 161.117203,86.027031 159.966888,87.762222 
z"/>
<path fill="#EC489F" opacity="1.000000" stroke="none" 
	d="
M163.054565,82.677704 
	C158.003876,82.989204 153.105591,83.196152 148.241058,82.881317 
	C146.482346,82.767502 144.804565,81.403381 143.014984,80.235710 
	C143.479218,79.061462 144.018326,78.261299 144.995209,77.622467 
	C146.114914,78.194954 146.812073,78.984703 147.476410,78.957993 
	C153.361816,78.721413 159.241379,78.340118 165.122681,78.001556 
	C164.488556,79.456657 163.854431,80.911766 163.054565,82.677704 
z"/>
<path fill="#EF88BF" opacity="1.000000" stroke="none" 
	d="
M152.057114,68.122391 
	C153.141022,66.466782 154.224930,64.811180 155.791992,63.259663 
	C159.237808,61.218052 162.200424,59.072353 165.163055,56.926651 
	C165.774399,59.027958 166.385742,61.129265 166.601532,63.655075 
	C161.852402,66.696571 157.999512,71.065903 152.057114,68.122391 
z"/>
<path fill="#ED58A7" opacity="1.000000" stroke="none" 
	d="
M165.300522,77.717087 
	C159.241379,78.340118 153.361816,78.721413 147.476410,78.957993 
	C146.812073,78.984703 146.114914,78.194954 145.247925,77.475998 
	C145.485077,76.511055 145.907288,75.853920 147.021881,75.135994 
	C154.390167,77.338158 160.643051,75.735664 166.770813,72.989868 
	C166.339996,74.470779 165.909180,75.951698 165.300522,77.717087 
z"/>
<path fill="#EE75B5" opacity="1.000000" stroke="none" 
	d="
M151.791290,68.287125 
	C157.999512,71.065903 161.852402,66.696571 166.551483,64.033775 
	C167.005142,65.384872 167.113297,66.781776 166.752090,68.628159 
	C160.887558,73.087570 154.681198,73.377441 148.327759,72.992828 
	C149.393661,71.479172 150.459564,69.965515 151.791290,68.287125 
z"/>
<path fill="#F067AF" opacity="1.000000" stroke="none" 
	d="
M148.085571,73.190842 
	C154.681198,73.377441 160.887558,73.087570 166.644165,69.037048 
	C167.000168,70.067986 166.994720,71.139511 166.880051,72.600449 
	C160.643051,75.735664 154.390167,77.338158 147.294235,75.015930 
	C147.197250,74.434059 147.520325,73.911453 148.085571,73.190842 
z"/>
<path fill="#F2A6CE" opacity="1.000000" stroke="none" 
	d="
M165.137360,56.573257 
	C162.200424,59.072353 159.237808,61.218052 156.082504,63.098610 
	C157.858017,59.677990 159.826187,56.522522 162.240982,52.651005 
	C163.364532,54.047829 164.238098,55.133846 165.137360,56.573257 
z"/>
<path fill="#F38635" opacity="1.000000" stroke="none" 
	d="
M97.923065,60.777279 
	C97.741119,60.774231 97.605995,60.493473 97.609222,60.097378 
	C97.821678,60.154552 97.895782,60.327061 97.923065,60.777279 
z"/>
<path fill="#20B8EF" opacity="1.000000" stroke="none" 
	d="
M164.652084,148.193436 
	C164.478500,148.018097 164.504913,147.675308 164.749573,147.171188 
	C164.929245,147.348557 164.890671,147.687286 164.652084,148.193436 
z"/>
<path fill="#01ADED" opacity="1.000000" stroke="none" 
	d="
M162.500946,152.193329 
	C162.362289,151.975983 162.474243,151.634979 162.829590,151.158524 
	C162.965836,151.371948 162.858688,151.720810 162.500946,152.193329 
z"/>
<path fill="#A1DEC2" opacity="1.000000" stroke="none" 
	d="
M78.606781,125.988548 
	C70.571518,125.897087 65.901848,121.430267 67.299843,115.524162 
	C68.433998,110.732697 71.714714,108.022438 76.418190,107.991325 
	C81.734131,107.956161 84.368027,110.522400 86.000076,117.706924 
	C83.648285,120.711433 81.285141,123.325066 78.606781,125.988548 
M76.391754,123.469551 
	C78.297737,122.418083 80.785583,121.805977 81.983322,120.219727 
	C84.183334,117.306129 83.455505,114.029633 80.370209,112.059128 
	C77.346413,110.127899 73.947159,110.092804 71.471664,113.145157 
	C69.667374,115.369904 68.476341,117.983704 72.081123,120.729279 
	C73.390503,121.472183 74.699883,122.215088 76.391754,123.469551 
z"/>
<path fill="#FBD8BD" opacity="1.000000" stroke="none" 
	d="
M89.983231,59.984371 
	C89.878136,60.304256 89.689957,60.563931 88.862724,60.877552 
	C87.537270,61.340160 86.767792,61.688606 85.998314,62.037052 
	C84.932617,62.033897 83.866920,62.030739 82.202148,61.762573 
	C80.741310,61.325665 79.879547,61.153755 79.017784,60.981850 
	C78.697952,60.876671 78.438141,60.688591 78.125534,59.823990 
	C78.021858,58.476109 78.030998,57.721851 78.406723,56.974724 
	C79.506485,56.994904 80.239670,57.007961 81.193726,57.130196 
	C81.687126,57.442753 81.875389,57.706322 82.045135,58.373596 
	C83.792923,60.645378 85.155457,60.753662 86.130424,57.810104 
	C86.438919,57.311867 86.701599,57.122528 87.395134,57.017914 
	C88.496544,56.999897 89.230774,56.985493 89.977440,57.348106 
	C89.987656,58.478210 89.985443,59.231289 89.983231,59.984371 
z"/>
<path fill="#FCE4D2" opacity="1.000000" stroke="none" 
	d="
M89.965012,56.971085 
	C89.230774,56.985493 88.496544,56.999897 87.381531,56.662865 
	C86.331680,54.860413 85.662598,53.409405 85.205284,51.701683 
	C86.282822,51.292797 87.148598,51.140621 88.014366,50.988449 
	C88.502449,51.256371 88.990532,51.524296 89.729202,52.311913 
	C89.974869,54.211433 89.969940,55.591259 89.965012,56.971085 
z"/>
<path fill="#FCE4D2" opacity="1.000000" stroke="none" 
	d="
M80.972847,57.021019 
	C80.239670,57.007961 79.506485,56.994904 78.399178,56.562260 
	C78.019188,54.763378 78.013321,53.384087 78.007462,52.004791 
	C78.786636,51.737614 79.565819,51.470436 80.934906,51.107193 
	C82.018608,51.327427 82.512398,51.643719 82.855911,52.276356 
	C82.128044,54.068810 81.550446,55.544914 80.972847,57.021019 
z"/>
<path fill="#FACCA9" opacity="1.000000" stroke="none" 
	d="
M89.977432,57.348106 
	C89.969940,55.591259 89.974869,54.211433 89.987862,52.417095 
	C93.720497,54.243145 92.277252,56.930737 90.319633,59.809048 
	C89.985443,59.231289 89.987656,58.478210 89.977432,57.348106 
z"/>
<path fill="#FACCA9" opacity="1.000000" stroke="none" 
	d="
M77.632408,52.075504 
	C78.013321,53.384087 78.019188,54.763378 78.032593,56.555130 
	C78.030998,57.721851 78.021858,58.476109 78.015305,59.606644 
	C75.053650,57.633762 75.258530,54.977039 77.632408,52.075504 
z"/>
<path fill="#FBD8BD" opacity="1.000000" stroke="none" 
	d="
M83.006180,51.960007 
	C82.512398,51.643719 82.018608,51.327427 81.217148,50.968628 
	C80.927376,50.494438 80.945274,50.062756 81.404785,49.314095 
	C83.569862,48.991470 85.293320,48.985821 87.016777,48.980171 
	C87.281754,49.474823 87.546730,49.969479 87.913040,50.726288 
	C87.148598,51.140621 86.282822,51.292797 84.874161,51.710579 
	C83.889565,51.970795 83.447876,51.965401 83.006180,51.960007 
z"/>
<path fill="#FACCA9" opacity="1.000000" stroke="none" 
	d="
M86.938400,48.615688 
	C85.293320,48.985821 83.569862,48.991470 81.415451,48.989525 
	C82.592506,45.920071 84.635101,46.352627 86.938400,48.615688 
z"/>
<path fill="#FACCA9" opacity="1.000000" stroke="none" 
	d="
M86.172043,62.268112 
	C86.767792,61.688606 87.537270,61.340160 88.645203,60.987385 
	C88.104362,61.488430 87.225075,61.993801 86.172043,62.268112 
z"/>
<path fill="#FACCA9" opacity="1.000000" stroke="none" 
	d="
M79.138573,61.259308 
	C79.879547,61.153755 80.741310,61.325665 81.802536,61.767281 
	C81.087784,61.870255 80.173569,61.703514 79.138573,61.259308 
z"/>
<path fill="#E5F6FC" opacity="1.000000" stroke="none" 
	d="
M150.994507,116.994812 
	C152.495377,113.312500 155.550720,114.668564 156.800308,116.262833 
	C158.098007,117.918488 158.841568,121.445961 157.908646,123.011108 
	C156.962158,124.599007 153.247467,125.956482 151.504181,125.323723 
	C148.753418,124.325272 146.217148,121.699814 149.634476,118.454956 
	C151.339417,120.451836 152.678284,122.128464 154.017166,123.805084 
	C154.987854,122.437019 156.838425,121.017807 156.762421,119.710602 
	C156.544312,115.959160 153.249878,117.289108 150.994507,116.994812 
z"/>
<path fill="#F2FAFD" opacity="1.000000" stroke="none" 
	d="
M150.886353,117.213882 
	C153.249878,117.289108 156.544312,115.959160 156.762421,119.710602 
	C156.838425,121.017807 154.987854,122.437019 154.017166,123.805084 
	C152.678284,122.128464 151.339417,120.451836 149.997833,118.385048 
	C150.317886,117.893585 150.578918,117.706276 150.886353,117.213882 
z"/>
<path fill="#BCE7D3" opacity="1.000000" stroke="none" 
	d="
M71.970558,120.028778 
	C68.476341,117.983704 69.667374,115.369904 71.471664,113.145157 
	C73.947159,110.092804 77.346413,110.127899 80.370209,112.059128 
	C83.455505,114.029633 84.183334,117.306129 81.983322,120.219727 
	C80.785583,121.805977 78.297737,122.418083 76.374359,122.958755 
	C76.913406,121.642189 77.469841,120.836411 78.135483,119.810493 
	C78.447945,119.318863 78.710808,119.130539 79.376778,118.959076 
	C81.642677,117.207916 81.753471,115.842110 78.949753,114.621071 
	C76.953613,112.544510 75.208015,112.003128 73.599159,115.049416 
	C72.810684,116.760757 72.390625,118.394768 71.970558,120.028778 
z"/>
<path fill="#D3EFE2" opacity="1.000000" stroke="none" 
	d="
M72.025841,120.379028 
	C72.390625,118.394768 72.810684,116.760757 73.610687,115.444870 
	C73.754692,118.680740 74.993675,120.203751 78.026283,120.030632 
	C77.469841,120.836411 76.913406,121.642189 76.183121,122.702980 
	C74.699883,122.215088 73.390503,121.472183 72.025841,120.379028 
z"/>
<path fill="#FDF2EA" opacity="1.000000" stroke="none" 
	d="
M82.855911,52.276352 
	C83.447876,51.965401 83.889565,51.970795 84.662384,51.967293 
	C85.662598,53.409405 86.331680,54.860413 87.014359,56.666473 
	C86.701599,57.122528 86.438919,57.311867 85.726120,57.799946 
	C84.134682,58.016930 83.057037,58.023502 81.979401,58.030075 
	C81.875389,57.706322 81.687126,57.442753 81.193726,57.130196 
	C81.550446,55.544914 82.128044,54.068810 82.855911,52.276352 
z"/>
<path fill="#FCE4D2" opacity="1.000000" stroke="none" 
	d="
M82.045135,58.373596 
	C83.057037,58.023502 84.134682,58.016930 85.616623,58.020515 
	C85.155457,60.753662 83.792923,60.645378 82.045135,58.373596 
z"/>
<path fill="#EBF7F2" opacity="1.000000" stroke="none" 
	d="
M78.135483,119.810493 
	C74.993675,120.203751 73.754692,118.680740 73.979095,115.367538 
	C75.208015,112.003128 76.953613,112.544510 78.939018,115.026245 
	C79.017014,116.865631 79.025139,117.945503 79.033264,119.025375 
	C78.710808,119.130539 78.447945,119.318863 78.135483,119.810493 
z"/>
<path fill="#D3EFE2" opacity="1.000000" stroke="none" 
	d="
M79.376778,118.959076 
	C79.025139,117.945503 79.017014,116.865631 79.019623,115.380585 
	C81.753471,115.842110 81.642677,117.207916 79.376778,118.959076 
z"/>
</svg>