<svg width="40" height="40" viewBox="0 0 40 40" fill="none" xmlns="http://www.w3.org/2000/svg">
<path d="M20 15.125C19.0358 15.125 18.0933 15.4109 17.2916 15.9466C16.4899 16.4823 15.8651 17.2436 15.4961 18.1344C15.1271 19.0252 15.0306 20.0054 15.2187 20.9511C15.4068 21.8967 15.8711 22.7654 16.5529 23.4471C17.2346 24.1289 18.1033 24.5932 19.0489 24.7813C19.9946 24.9694 20.9748 24.8729 21.8656 24.5039C22.7564 24.1349 23.5177 23.5101 24.0534 22.7084C24.5891 21.9067 24.875 20.9642 24.875 20C24.8735 18.7075 24.3594 17.4684 23.4455 16.5545C22.5316 15.6406 21.2925 15.1265 20 15.125ZM20 22.625C19.4808 22.625 18.9733 22.471 18.5416 22.1826C18.1099 21.8942 17.7735 21.4842 17.5748 21.0045C17.3761 20.5249 17.3242 19.9971 17.4254 19.4879C17.5267 18.9787 17.7767 18.511 18.1438 18.1438C18.511 17.7767 18.9787 17.5267 19.4879 17.4254C19.9971 17.3241 20.5249 17.3761 21.0045 17.5748C21.4842 17.7735 21.8942 18.1099 22.1826 18.5416C22.471 18.9733 22.625 19.4808 22.625 20C22.625 20.6962 22.3484 21.3639 21.8562 21.8562C21.3639 22.3484 20.6962 22.625 20 22.625ZM28.625 20.0741V19.9259L29.9375 18.2844C30.0477 18.1468 30.124 17.9853 30.1603 17.8129C30.1966 17.6404 30.1919 17.4619 30.1466 17.2916C29.9097 16.3982 29.5557 15.5401 29.0938 14.7397C29.0048 14.587 28.8811 14.4575 28.7327 14.3616C28.5843 14.2656 28.4154 14.206 28.2397 14.1875L26.1509 13.9531L26.0469 13.8491L25.8125 11.7594C25.7939 11.5838 25.7342 11.4151 25.6382 11.2669C25.5423 11.1187 25.4128 10.9951 25.2603 10.9062C24.4598 10.4428 23.6014 10.0875 22.7075 9.84968C22.5371 9.805 22.3585 9.80098 22.1862 9.83795C22.0139 9.87491 21.8527 9.95183 21.7156 10.0625L20.0741 11.375H19.9259L18.2844 10.0625C18.1468 9.95232 17.9853 9.876 17.8129 9.83969C17.6404 9.80338 17.4619 9.80808 17.2916 9.85343C16.398 10.0918 15.5399 10.4473 14.7397 10.9109C14.5876 10.9995 14.4585 11.1224 14.3626 11.2699C14.2667 11.4175 14.2067 11.5854 14.1875 11.7603L13.9531 13.8491L13.8491 13.9531L11.7594 14.1875C11.5838 14.2061 11.4151 14.2658 11.2669 14.3618C11.1187 14.4577 10.9952 14.5872 10.9063 14.7397C10.4441 15.5404 10.0901 16.3988 9.85344 17.2925C9.80824 17.4627 9.80362 17.641 9.83993 17.8133C9.87624 17.9856 9.95247 18.1469 10.0625 18.2844L11.375 19.9259V20.0741L10.0625 21.7156C9.95233 21.8532 9.87601 22.0147 9.83969 22.1871C9.80338 22.3596 9.80809 22.5381 9.85344 22.7084C10.0921 23.6021 10.448 24.4601 10.9119 25.2603C11.0003 25.4122 11.1231 25.5413 11.2705 25.6372C11.4178 25.7331 11.5856 25.7931 11.7603 25.8125L13.8491 26.045L13.9531 26.1491L14.1875 28.2406C14.2061 28.4162 14.2658 28.5849 14.3618 28.7331C14.4577 28.8813 14.5872 29.0048 14.7397 29.0937C15.5402 29.5572 16.3986 29.9124 17.2925 30.1503C17.4629 30.195 17.6415 30.199 17.8138 30.162C17.9861 30.1251 18.1473 30.0482 18.2844 29.9375L19.9259 28.625H20.0741L21.7156 29.9375C21.8532 30.0477 22.0147 30.124 22.1871 30.1603C22.3596 30.1966 22.5381 30.1919 22.7084 30.1466C23.6018 29.9097 24.4598 29.5557 25.2603 29.0937C25.4127 29.0054 25.5422 28.8826 25.6385 28.735C25.7347 28.5875 25.795 28.4194 25.8144 28.2444L26.0469 26.1556L26.1509 26.0516L28.2406 25.8125C28.4157 25.7931 28.5838 25.7328 28.7313 25.6366C28.8788 25.5404 29.0017 25.4108 29.09 25.2584C29.5534 24.4579 29.9087 23.5995 30.1466 22.7056C30.1914 22.5357 30.1959 22.3577 30.1596 22.1858C30.1233 22.0139 30.0472 21.8528 29.9375 21.7156L28.625 20.0741ZM26.3638 19.6156C26.3788 19.8717 26.3788 20.1283 26.3638 20.3844C26.347 20.6627 26.4342 20.9373 26.6084 21.155L27.8122 22.6597C27.6986 22.996 27.563 23.3246 27.4063 23.6431L25.4909 23.8559C25.2136 23.8876 24.958 24.0213 24.7738 24.2309C24.6034 24.4228 24.4219 24.6044 24.23 24.7747C24.0204 24.959 23.8867 25.2146 23.855 25.4919L23.6431 27.4062C23.3246 27.5636 22.9961 27.6998 22.6597 27.8141L21.155 26.6094C20.9553 26.45 20.7073 26.3634 20.4519 26.3637C20.4294 26.3637 20.4069 26.3637 20.3844 26.3637C20.1283 26.3787 19.8717 26.3787 19.6156 26.3637C19.3375 26.3473 19.0631 26.4341 18.845 26.6075L17.3403 27.8122C17.004 27.6986 16.6754 27.5629 16.3569 27.4062L16.1441 25.4909C16.1124 25.2136 15.9787 24.958 15.7691 24.7737C15.5772 24.6034 15.3956 24.4219 15.2253 24.23C15.041 24.0204 14.7854 23.8867 14.5081 23.855L12.5938 23.6431C12.4364 23.3246 12.3002 22.9961 12.1859 22.6597L13.3897 21.155C13.5639 20.9373 13.6511 20.6627 13.6344 20.3844C13.6194 20.1283 13.6194 19.8717 13.6344 19.6156C13.6511 19.3373 13.5639 19.0627 13.3897 18.845L12.1878 17.3403C12.3014 17.004 12.437 16.6754 12.5938 16.3569L14.5091 16.1441C14.7864 16.1124 15.042 15.9787 15.2263 15.7691C15.3966 15.5772 15.5781 15.3956 15.77 15.2253C15.9796 15.041 16.1133 14.7854 16.145 14.5081L16.3569 12.5937C16.6754 12.4364 17.0039 12.3002 17.3403 12.1859L18.845 13.3906C19.0631 13.564 19.3375 13.6509 19.6156 13.6344C19.8717 13.6194 20.1283 13.6194 20.3844 13.6344C20.6626 13.6514 20.9372 13.5645 21.155 13.3906L22.6597 12.1859C22.9961 12.3002 23.3246 12.4364 23.6431 12.5937L23.8559 14.5091C23.8876 14.7864 24.0213 15.042 24.2309 15.2262C24.4228 15.3966 24.6044 15.5781 24.7747 15.77C24.959 15.9796 25.2146 16.1133 25.4919 16.145L27.4063 16.3569C27.5636 16.6754 27.6998 17.0039 27.8141 17.3403L26.6103 18.845C26.4354 19.0624 26.3475 19.3371 26.3638 19.6156Z" fill="white"/>
</svg>
