<svg width="27" height="18" viewBox="0 0 27 18" fill="none" xmlns="http://www.w3.org/2000/svg">
<path d="M22.5233 12.4626L25.7353 15.6746L24.6746 16.7353L21.4626 13.5233C20.3077 14.4473 18.843 15 17.25 15C13.524 15 10.5 11.976 10.5 8.25C10.5 4.524 13.524 1.5 17.25 1.5C20.976 1.5 24 4.524 24 8.25C24 9.843 23.4473 11.3077 22.5233 12.4626ZM21.0185 11.9061C21.9356 10.9609 22.5 9.6717 22.5 8.25C22.5 5.34938 20.1506 3 17.25 3C14.3494 3 12 5.34938 12 8.25C12 11.1506 14.3494 13.5 17.25 13.5C18.6717 13.5 19.9609 12.9356 20.9061 12.0185L21.0185 11.9061Z" fill="#8A8995"/>
</svg>
