<svg width="16" height="16" viewBox="0 0 16 16" fill="none" xmlns="http://www.w3.org/2000/svg">
<path d="M6.9694 8.5306L11.9694 13.5306C12.0392 13.6004 12.122 13.6557 12.2131 13.6935C12.3043 13.7312 12.402 13.7506 12.5007 13.7506C12.5993 13.7506 12.697 13.7312 12.7882 13.6935C12.8793 13.6557 12.9621 13.6004 13.0319 13.5306C13.1017 13.4608 13.157 13.378 13.1948 13.2869C13.2325 13.1957 13.252 13.098 13.252 12.9993C13.252 12.9007 13.2325 12.803 13.1948 12.7118C13.157 12.6207 13.1017 12.5379 13.0319 12.4681L8.56253 7.99997L13.0307 3.5306C13.1715 3.3897 13.2507 3.19861 13.2507 2.99935C13.2507 2.80009 13.1715 2.60899 13.0307 2.4681C12.8898 2.3272 12.6987 2.24805 12.4994 2.24805C12.3001 2.24805 12.109 2.3272 11.9682 2.4681L6.96815 7.4681C6.89831 7.53786 6.84293 7.62072 6.80519 7.71193C6.76744 7.80313 6.74807 7.9009 6.74819 7.99961C6.7483 8.09832 6.7679 8.19603 6.80586 8.28715C6.84383 8.37827 6.8994 8.461 6.9694 8.5306ZM1.9694 7.4681L6.9694 2.4681C7.03917 2.39833 7.12199 2.34299 7.21314 2.30524C7.30429 2.26748 7.40199 2.24805 7.50065 2.24805C7.59931 2.24805 7.69701 2.26748 7.78816 2.30524C7.87931 2.34299 7.96214 2.39833 8.0319 2.4681C8.10167 2.53786 8.15701 2.62069 8.19476 2.71184C8.23252 2.80299 8.25195 2.90069 8.25195 2.99935C8.25195 3.09801 8.23252 3.19571 8.19476 3.28686C8.15701 3.37801 8.10167 3.46083 8.0319 3.5306L3.56253 7.99997L8.03253 12.4693C8.17342 12.6102 8.25258 12.8013 8.25258 13.0006C8.25258 13.1999 8.17342 13.391 8.03253 13.5318C7.89163 13.6727 7.70053 13.7519 7.50128 13.7519C7.30202 13.7519 7.11092 13.6727 6.97003 13.5318L1.97003 8.53185C1.90007 8.46221 1.84454 8.37945 1.80663 8.28831C1.76873 8.19717 1.74918 8.09944 1.74912 8.00073C1.74906 7.90202 1.76849 7.80427 1.80629 7.71308C1.84409 7.62189 1.89952 7.53907 1.9694 7.46935V7.4681Z" fill="#14132B"/>
</svg>
