<svg width="40" height="40" viewBox="0 0 40 40" fill="none" xmlns="http://www.w3.org/2000/svg">
<path d="M18.875 20V12.5C18.875 12.2016 18.9935 11.9155 19.2045 11.7045C19.4155 11.4935 19.7016 11.375 20 11.375C20.2984 11.375 20.5845 11.4935 20.7955 11.7045C21.0065 11.9155 21.125 12.2016 21.125 12.5V20C21.125 20.2984 21.0065 20.5845 20.7955 20.7955C20.5845 21.0065 20.2984 21.125 20 21.125C19.7016 21.125 19.4155 21.0065 19.2045 20.7955C18.9935 20.5845 18.875 20.2984 18.875 20ZM25.1141 12.3125C24.8643 12.1587 24.5642 12.1085 24.278 12.1727C23.9917 12.2369 23.7419 12.4104 23.5817 12.6562C23.4215 12.902 23.3637 13.2006 23.4205 13.4884C23.4774 13.7762 23.6444 14.0304 23.8859 14.1969C25.9447 15.5347 27.125 17.6562 27.125 20C27.125 21.8897 26.3743 23.7019 25.0381 25.0381C23.7019 26.3743 21.8897 27.125 20 27.125C18.1103 27.125 16.2981 26.3743 14.9619 25.0381C13.6257 23.7019 12.875 21.8897 12.875 20C12.875 17.6562 14.0553 15.5347 16.1141 14.1922C16.3428 14.0208 16.4977 13.7687 16.5473 13.4872C16.5969 13.2057 16.5375 12.9159 16.3812 12.6766C16.2248 12.4373 15.9833 12.2665 15.7055 12.1989C15.4278 12.1313 15.1348 12.1719 14.8859 12.3125C12.1775 14.0731 10.625 16.8772 10.625 20C10.625 22.4864 11.6127 24.871 13.3709 26.6291C15.129 28.3873 17.5136 29.375 20 29.375C22.4864 29.375 24.871 28.3873 26.6291 26.6291C28.3873 24.871 29.375 22.4864 29.375 20C29.375 16.8772 27.8225 14.0731 25.1141 12.3125Z" fill="white"/>
</svg>
