<svg width="20" height="20" viewBox="0 0 20 20" fill="none" xmlns="http://www.w3.org/2000/svg">
<path d="M17.9375 4H2.9375C2.68886 4 2.4504 4.09877 2.27459 4.27459C2.09877 4.4504 2 4.68886 2 4.9375V15.5625C2 15.9769 2.16462 16.3743 2.45765 16.6674C2.75067 16.9604 3.1481 17.125 3.5625 17.125H17.3125C17.7269 17.125 18.1243 16.9604 18.4174 16.6674C18.7104 16.3743 18.875 15.9769 18.875 15.5625V4.9375C18.875 4.68886 18.7762 4.4504 18.6004 4.27459C18.4246 4.09877 18.1861 4 17.9375 4ZM10.4375 10.5406L5.34766 5.875H15.5273L10.4375 10.5406ZM7.68672 10.5625L3.875 14.0563V7.06875L7.68672 10.5625ZM9.07422 11.8344L9.80391 12.5039C9.97682 12.6625 10.2029 12.7504 10.4375 12.7504C10.6721 12.7504 10.8982 12.6625 11.0711 12.5039L11.8008 11.8344L15.5273 15.25H5.34766L9.07422 11.8344ZM13.1883 10.5625L17 7.06875V14.0563L13.1883 10.5625Z" fill="#8A8995"/>
</svg>
