<svg width="40" height="40" viewBox="0 0 40 40" fill="none" xmlns="http://www.w3.org/2000/svg">
<path d="M28.7712 17.4547L21.2759 10.3794L21.2609 10.3653C20.9165 10.0501 20.4665 9.87525 19.9995 9.87525C19.5326 9.87525 19.0826 10.0501 18.7381 10.3653L18.7222 10.3794L11.2287 17.4547C11.0387 17.6305 10.887 17.8436 10.7831 18.0808C10.6792 18.3179 10.6254 18.5739 10.625 18.8328V27.5C10.625 27.9973 10.8225 28.4742 11.1742 28.8258C11.5258 29.1775 12.0027 29.375 12.5 29.375H17C17.4973 29.375 17.9742 29.1775 18.3258 28.8258C18.6775 28.4742 18.875 27.9973 18.875 27.5V23.375H21.125V27.5C21.125 27.9973 21.3225 28.4742 21.6742 28.8258C22.0258 29.1775 22.5027 29.375 23 29.375H27.5C27.9973 29.375 28.4742 29.1775 28.8258 28.8258C29.1775 28.4742 29.375 27.9973 29.375 27.5V18.8328C29.3746 18.5739 29.3208 18.3179 29.2169 18.0808C29.113 17.8436 28.9613 17.6305 28.7712 17.4547ZM27.125 27.125H23.375V23C23.375 22.7538 23.3265 22.51 23.2323 22.2825C23.138 22.055 22.9999 21.8483 22.8258 21.6742C22.6517 21.5001 22.445 21.362 22.2175 21.2677C21.99 21.1735 21.7462 21.125 21.5 21.125H18.5C18.0027 21.125 17.5258 21.3225 17.1742 21.6742C16.8225 22.0258 16.625 22.5027 16.625 23V27.125H12.875V18.995L20 12.2684L27.125 18.995V27.125Z" fill="white"/>
</svg>
