<svg width="40" height="40" viewBox="0 0 40 40" fill="none" xmlns="http://www.w3.org/2000/svg">
<path d="M27.1934 12.8609C25.7792 11.4377 23.9743 10.4664 22.0074 10.0701C20.0405 9.67392 18.0003 9.8706 16.1453 10.6353C14.2903 11.3999 12.7042 12.6981 11.5879 14.3653C10.4716 16.0325 9.87543 17.9936 9.875 20V25.25C9.875 25.9462 10.1516 26.6139 10.6438 27.1062C11.1361 27.5984 11.8038 27.875 12.5 27.875H14C14.6962 27.875 15.3639 27.5984 15.8562 27.1062C16.3484 26.6139 16.625 25.9462 16.625 25.25V21.5C16.625 20.8038 16.3484 20.1361 15.8562 19.6438C15.3639 19.1516 14.6962 18.875 14 18.875H12.2038C12.4753 17.0008 13.4126 15.2871 14.8443 14.0475C16.276 12.808 18.1063 12.1255 20 12.125H20.06C21.9453 12.1331 23.7647 12.8197 25.1853 14.0592C26.6059 15.2986 27.5327 17.0082 27.7963 18.875H26C25.3038 18.875 24.6361 19.1516 24.1438 19.6438C23.6516 20.1361 23.375 20.8038 23.375 21.5V25.25C23.375 25.9462 23.6516 26.6139 24.1438 27.1062C24.6361 27.5984 25.3038 27.875 26 27.875H27.8375C27.7511 28.2985 27.5209 28.6791 27.1861 28.9525C26.8512 29.2258 26.4322 29.3751 26 29.375H20.75C20.4516 29.375 20.1655 29.4935 19.9545 29.7045C19.7435 29.9155 19.625 30.2016 19.625 30.5C19.625 30.7984 19.7435 31.0845 19.9545 31.2955C20.1655 31.5065 20.4516 31.625 20.75 31.625H26C27.0936 31.6238 28.1421 31.1888 28.9154 30.4154C29.6888 29.6421 30.1238 28.5936 30.125 27.5V20C30.1302 18.6757 29.8739 17.3633 29.3708 16.1383C28.8677 14.9132 28.1278 13.7995 27.1934 12.8609ZM14 21.125C14.0995 21.125 14.1948 21.1645 14.2652 21.2348C14.3355 21.3052 14.375 21.4005 14.375 21.5V25.25C14.375 25.3495 14.3355 25.4448 14.2652 25.5152C14.1948 25.5855 14.0995 25.625 14 25.625H12.5C12.4005 25.625 12.3052 25.5855 12.2348 25.5152C12.1645 25.4448 12.125 25.3495 12.125 25.25V21.125H14ZM25.625 25.25V21.5C25.625 21.4005 25.6645 21.3052 25.7348 21.2348C25.8052 21.1645 25.9005 21.125 26 21.125H27.875V25.625H26C25.9005 25.625 25.8052 25.5855 25.7348 25.5152C25.6645 25.4448 25.625 25.3495 25.625 25.25Z" fill="white"/>
</svg>
