<svg width="40" height="40" viewBox="0 0 40 40" fill="none" xmlns="http://www.w3.org/2000/svg">
<path d="M27.5 15.125H17.375V13.25C17.375 12.5538 17.6516 11.8861 18.1438 11.3938C18.6361 10.9016 19.3038 10.625 20 10.625C21.2666 10.625 22.4047 11.5269 22.6475 12.7241C22.6769 12.8688 22.7346 13.0064 22.8172 13.1289C22.8998 13.2514 23.0057 13.3565 23.1289 13.438C23.252 13.5196 23.3901 13.5761 23.5351 13.6043C23.6801 13.6325 23.8293 13.6319 23.9741 13.6025C24.1188 13.5731 24.2564 13.5154 24.3789 13.4328C24.5014 13.3502 24.6065 13.2443 24.688 13.1211C24.7696 12.998 24.8261 12.8599 24.8543 12.7149C24.8825 12.5699 24.8819 12.4207 24.8525 12.2759C24.3941 10.0156 22.3531 8.375 20 8.375C18.7075 8.37649 17.4684 8.89058 16.5545 9.8045C15.6406 10.7184 15.1265 11.9575 15.125 13.25V15.125H12.5C12.0027 15.125 11.5258 15.3225 11.1742 15.6742C10.8225 16.0258 10.625 16.5027 10.625 17V27.5C10.625 27.9973 10.8225 28.4742 11.1742 28.8258C11.5258 29.1775 12.0027 29.375 12.5 29.375H27.5C27.9973 29.375 28.4742 29.1775 28.8258 28.8258C29.1775 28.4742 29.375 27.9973 29.375 27.5V17C29.375 16.5027 29.1775 16.0258 28.8258 15.6742C28.4742 15.3225 27.9973 15.125 27.5 15.125ZM27.125 27.125H12.875V17.375H27.125V27.125ZM18.5 22.25C18.5 21.9533 18.588 21.6633 18.7528 21.4166C18.9176 21.17 19.1519 20.9777 19.426 20.8642C19.7001 20.7506 20.0017 20.7209 20.2926 20.7788C20.5836 20.8367 20.8509 20.9796 21.0607 21.1893C21.2704 21.3991 21.4133 21.6664 21.4712 21.9574C21.5291 22.2483 21.4994 22.5499 21.3858 22.824C21.2723 23.0981 21.08 23.3324 20.8334 23.4972C20.5867 23.662 20.2967 23.75 20 23.75C19.6022 23.75 19.2206 23.592 18.9393 23.3107C18.658 23.0294 18.5 22.6478 18.5 22.25Z" fill="white"/>
</svg>
