<svg width="16" height="16" viewBox="0 0 16 16" fill="none" xmlns="http://www.w3.org/2000/svg">
<path d="M4.4694 8.5306L9.4694 13.5306C9.6103 13.6715 9.80139 13.7506 10.0007 13.7506C10.1999 13.7506 10.391 13.6715 10.5319 13.5306C10.6728 13.3897 10.752 13.1986 10.752 12.9993C10.752 12.8001 10.6728 12.609 10.5319 12.4681L6.06253 7.99997L10.5307 3.5306C10.6004 3.46083 10.6558 3.37801 10.6935 3.28686C10.7313 3.19571 10.7507 3.09801 10.7507 2.99935C10.7507 2.90069 10.7313 2.80299 10.6935 2.71184C10.6558 2.62069 10.6004 2.53786 10.5307 2.4681C10.4609 2.39833 10.3781 2.34299 10.2869 2.30524C10.1958 2.26748 10.0981 2.24805 9.9994 2.24805C9.90074 2.24805 9.80304 2.26748 9.71189 2.30524C9.62074 2.34299 9.53792 2.39833 9.46815 2.4681L4.46815 7.4681C4.39831 7.53786 4.34293 7.62072 4.30519 7.71193C4.26744 7.80313 4.24807 7.9009 4.24819 7.99961C4.2483 8.09832 4.2679 8.19603 4.30586 8.28715C4.34383 8.37827 4.3994 8.461 4.4694 8.5306Z" fill="#14132B"/>
</svg>
