<svg width="40" height="40" viewBox="0 0 40 40" fill="none" xmlns="http://www.w3.org/2000/svg">
<path d="M28.2959 15.455L23.0459 10.205C22.9415 10.1004 22.8174 10.0174 22.6808 9.96078C22.5442 9.90416 22.3978 9.87501 22.25 9.875H13.25C12.7527 9.875 12.2758 10.0725 11.9242 10.4242C11.5725 10.7758 11.375 11.2527 11.375 11.75V28.25C11.375 28.7473 11.5725 29.2242 11.9242 29.5758C12.2758 29.9275 12.7527 30.125 13.25 30.125H26.75C27.2473 30.125 27.7242 29.9275 28.0758 29.5758C28.4275 29.2242 28.625 28.7473 28.625 28.25V16.25C28.625 15.9519 28.5066 15.6659 28.2959 15.455ZM23 13.3438L25.1562 15.5H23V13.3438ZM13.625 27.875V12.125H20.75V16.625C20.75 16.9234 20.8685 17.2095 21.0795 17.4205C21.2905 17.6315 21.5766 17.75 21.875 17.75H26.375V27.875H13.625ZM23.0459 22.2041C23.1508 22.3086 23.234 22.4328 23.2908 22.5695C23.3476 22.7063 23.3768 22.8529 23.3768 23.0009C23.3768 23.149 23.3476 23.2956 23.2908 23.4324C23.234 23.5691 23.1508 23.6933 23.0459 23.7978L20.7959 26.0478C20.6914 26.1527 20.5672 26.2359 20.4305 26.2927C20.2937 26.3495 20.1471 26.3787 19.9991 26.3787C19.851 26.3787 19.7044 26.3495 19.5676 26.2927C19.4309 26.2359 19.3067 26.1527 19.2022 26.0478L16.9522 23.7978C16.7408 23.5865 16.6221 23.2998 16.6221 23.0009C16.6221 22.7021 16.7408 22.4154 16.9522 22.2041C17.1635 21.9927 17.4502 21.874 17.7491 21.874C18.0479 21.874 18.3346 21.9927 18.5459 22.2041L18.875 22.5312V19.625C18.875 19.3266 18.9935 19.0405 19.2045 18.8295C19.4155 18.6185 19.7016 18.5 20 18.5C20.2984 18.5 20.5845 18.6185 20.7955 18.8295C21.0065 19.0405 21.125 19.3266 21.125 19.625V22.5312L21.4541 22.2012C21.5587 22.0968 21.683 22.0141 21.8196 21.9577C21.9563 21.9013 22.1027 21.8724 22.2506 21.8727C22.3984 21.873 22.5448 21.9024 22.6812 21.9592C22.8177 22.0161 22.9416 22.0993 23.0459 22.2041Z" fill="white"/>
</svg>
