<svg width="20" height="20" viewBox="0 0 20 20" fill="none" xmlns="http://www.w3.org/2000/svg">
<path d="M17.3125 12.5309L13.6336 10.8817L13.6195 10.8754C13.3804 10.7723 13.1192 10.7308 12.8599 10.7547C12.6006 10.7786 12.3514 10.8671 12.1352 11.0122C12.1048 11.0325 12.0756 11.0544 12.0477 11.0778L10.3047 12.5622C9.28907 12.0114 8.23985 10.9708 7.68829 9.96763L9.17735 8.19731C9.20129 8.16874 9.22346 8.13874 9.24376 8.10747C9.38499 7.89197 9.47074 7.64488 9.49337 7.38821C9.51599 7.13155 9.4748 6.87327 9.37344 6.63638C9.37104 6.63184 9.36895 6.62714 9.36719 6.62231L7.71876 2.93716C7.58344 2.62897 7.35251 2.37254 7.06013 2.2058C6.76775 2.03907 6.42946 1.9709 6.09532 2.01138C4.96123 2.16035 3.92015 2.71706 3.16652 3.57751C2.41289 4.43797 1.99823 5.54333 2.00001 6.68716C2.00001 13.0629 7.18672 18.2497 13.5625 18.2497C14.7063 18.2514 15.8117 17.8368 16.6722 17.0831C17.5326 16.3295 18.0893 15.2884 18.2383 14.1543C18.2788 13.8202 18.2106 13.4819 18.0439 13.1895C17.8771 12.8972 17.6207 12.6662 17.3125 12.5309ZM13.5625 16.3747C10.9942 16.3716 8.53192 15.3499 6.71583 13.5338C4.89975 11.7177 3.87811 9.25549 3.87501 6.68716C3.87322 6.03989 4.09296 5.41149 4.49772 4.90639C4.90249 4.40129 5.4679 4.04989 6.10001 3.91059L7.57032 7.19184L6.07344 8.97466C6.04925 9.00349 6.02681 9.03375 6.00626 9.06528C5.85872 9.29071 5.77197 9.55047 5.75445 9.81932C5.73693 10.0882 5.78922 10.357 5.90626 10.5997C6.64219 12.1059 8.1586 13.6122 9.68047 14.3497C9.92477 14.4655 10.1949 14.5159 10.4646 14.4961C10.7342 14.4762 10.9941 14.3867 11.2188 14.2364C11.249 14.216 11.2779 14.1938 11.3055 14.17L13.0578 12.6801L16.3391 14.1497C16.1998 14.7818 15.8484 15.3472 15.3433 15.7519C14.8382 16.1567 14.2098 16.3764 13.5625 16.3747Z" fill="#8A8995"/>
</svg>
