<svg width="40" height="40" viewBox="0 0 40 40" fill="none" xmlns="http://www.w3.org/2000/svg">
<path d="M29.375 20C29.375 20.2984 29.2565 20.5845 29.0455 20.7955C28.8345 21.0065 28.5484 21.125 28.25 21.125H14.4688L19.2988 25.9541C19.5101 26.1654 19.6289 26.4521 19.6289 26.7509C19.6289 27.0498 19.5101 27.3365 19.2988 27.5478C19.0874 27.7592 18.8008 27.8779 18.5019 27.8779C18.203 27.8779 17.9164 27.7592 17.705 27.5478L10.955 20.7978C10.8502 20.6933 10.7669 20.5691 10.7102 20.4324C10.6534 20.2956 10.6241 20.149 10.6241 20.0009C10.6241 19.8529 10.6534 19.7063 10.7102 19.5695C10.7669 19.4328 10.8502 19.3086 10.955 19.2041L17.705 12.4541C17.8097 12.3494 17.9339 12.2664 18.0706 12.2098C18.2074 12.1531 18.3539 12.124 18.5019 12.124C18.6499 12.124 18.7964 12.1531 18.9332 12.2098C19.0699 12.2664 19.1941 12.3494 19.2988 12.4541C19.4034 12.5587 19.4864 12.6829 19.5431 12.8197C19.5997 12.9564 19.6289 13.1029 19.6289 13.2509C19.6289 13.3989 19.5997 13.5455 19.5431 13.6822C19.4864 13.8189 19.4034 13.9432 19.2988 14.0478L14.4688 18.875H28.25C28.5484 18.875 28.8345 18.9935 29.0455 19.2045C29.2565 19.4155 29.375 19.7016 29.375 20Z" fill="white"/>
</svg>
