<svg width="16" height="16" viewBox="0 0 16 16" fill="none" xmlns="http://www.w3.org/2000/svg">
<path d="M9.0306 8.5306L4.0306 13.5306C3.96083 13.6004 3.87801 13.6557 3.78686 13.6935C3.69571 13.7312 3.59801 13.7506 3.49935 13.7506C3.40069 13.7506 3.30299 13.7312 3.21184 13.6935C3.12069 13.6557 3.03786 13.6004 2.9681 13.5306C2.89833 13.4608 2.84299 13.378 2.80524 13.2869C2.76748 13.1957 2.74805 13.098 2.74805 12.9993C2.74805 12.9007 2.76748 12.803 2.80524 12.7118C2.84299 12.6207 2.89833 12.5379 2.9681 12.4681L7.43747 7.99997L2.96935 3.5306C2.82845 3.3897 2.7493 3.19861 2.7493 2.99935C2.7493 2.80009 2.82845 2.60899 2.96935 2.4681C3.11024 2.3272 3.30134 2.24805 3.5006 2.24805C3.69986 2.24805 3.89095 2.3272 4.03185 2.4681L9.03185 7.4681C9.10169 7.53786 9.15707 7.62072 9.19481 7.71193C9.23256 7.80313 9.25193 7.9009 9.25181 7.99961C9.2517 8.09832 9.2321 8.19603 9.19414 8.28715C9.15617 8.37827 9.1006 8.461 9.0306 8.5306ZM14.0306 7.4681L9.0306 2.4681C8.96083 2.39833 8.87801 2.34299 8.78686 2.30524C8.69571 2.26748 8.59801 2.24805 8.49935 2.24805C8.40069 2.24805 8.30299 2.26748 8.21184 2.30524C8.12069 2.34299 8.03786 2.39833 7.9681 2.4681C7.89833 2.53786 7.84299 2.62069 7.80524 2.71184C7.76748 2.80299 7.74805 2.90069 7.74805 2.99935C7.74805 3.09801 7.76748 3.19571 7.80524 3.28686C7.84299 3.37801 7.89833 3.46083 7.9681 3.5306L12.4375 7.99997L7.96747 12.4693C7.82658 12.6102 7.74742 12.8013 7.74742 13.0006C7.74742 13.1999 7.82658 13.391 7.96747 13.5318C8.10837 13.6727 8.29947 13.7519 8.49872 13.7519C8.69798 13.7519 8.88908 13.6727 9.02997 13.5318L14.03 8.53185C14.0999 8.46221 14.1555 8.37945 14.1934 8.28831C14.2313 8.19717 14.2508 8.09944 14.2509 8.00073C14.2509 7.90202 14.2315 7.80427 14.1937 7.71308C14.1559 7.62189 14.1005 7.53907 14.0306 7.46935V7.4681Z" fill="#14132B"/>
</svg>
