<svg width="20" height="20" viewBox="0 0 20 20" fill="none" xmlns="http://www.w3.org/2000/svg">
<path d="M13.9382 10.1124L16.6429 9.08665L16.6843 9.07024C16.9728 8.9428 17.216 8.73103 17.3819 8.46277C17.5478 8.1945 17.6287 7.88231 17.6138 7.56724C17.5989 7.25218 17.489 6.94899 17.2986 6.69755C17.1081 6.44611 16.8461 6.2582 16.5468 6.15852L4.04055 2.07493C3.76702 1.98703 3.47456 1.97624 3.1953 2.04376C2.91604 2.11128 2.6608 2.25449 2.45765 2.45765C2.25449 2.6608 2.11128 2.91604 2.04376 3.1953C1.97624 3.47456 1.98703 3.76702 2.07493 4.04055L6.15852 16.5468C6.25514 16.848 6.44172 17.1123 6.69315 17.3043C6.94457 17.4962 7.24877 17.6065 7.56477 17.6202H7.6429C7.94654 17.6212 8.24377 17.5329 8.49757 17.3662C8.75137 17.1995 8.95053 16.9618 9.07024 16.6827L9.08665 16.6413L10.1124 13.9366L13.3382 17.1624C13.4833 17.3076 13.6556 17.4227 13.8452 17.5013C14.0348 17.5799 14.238 17.6203 14.4433 17.6203C14.6485 17.6203 14.8518 17.5799 15.0414 17.5013C15.231 17.4227 15.4033 17.3076 15.5484 17.1624L17.164 15.5468C17.3091 15.4017 17.4243 15.2294 17.5029 15.0398C17.5814 14.8502 17.6219 14.647 17.6219 14.4417C17.6219 14.2365 17.5814 14.0332 17.5029 13.8436C17.4243 13.654 17.3091 13.4817 17.164 13.3366L13.9382 10.1124ZM14.4429 15.6171L11.096 12.2702C10.8033 11.9774 10.4062 11.8127 9.99212 11.8124C9.89409 11.8126 9.79628 11.8217 9.69993 11.8398C9.44985 11.8874 9.21521 11.9955 9.01642 12.1545C8.81763 12.3136 8.6607 12.5188 8.5593 12.7523C8.55305 12.7656 8.54758 12.7796 8.54212 12.7937L7.66321 15.1116L4.04993 4.04993L15.1116 7.66243L12.7937 8.54133L12.7523 8.55852C12.5188 8.66005 12.3136 8.81711 12.1547 9.01602C11.9957 9.21493 11.8878 9.44967 11.8403 9.69981C11.7928 9.94996 11.8071 10.2079 11.882 10.4513C11.957 10.6946 12.0902 10.9159 12.2702 11.096L15.6171 14.4429L14.4429 15.6171Z" fill="#8A8995"/>
</svg>
