<svg width="25" height="24" viewBox="0 0 25 24" fill="none" xmlns="http://www.w3.org/2000/svg">
<path d="M12.5 7.12495C11.5358 7.12495 10.5933 7.41086 9.7916 7.94654C8.98991 8.48221 8.36507 9.24358 7.99609 10.1344C7.62711 11.0252 7.53057 12.0054 7.71867 12.951C7.90678 13.8967 8.37107 14.7653 9.05286 15.4471C9.73464 16.1289 10.6033 16.5932 11.5489 16.7813C12.4946 16.9694 13.4748 16.8728 14.3656 16.5039C15.2564 16.1349 16.0177 15.51 16.5534 14.7084C17.0891 13.9067 17.375 12.9641 17.375 12C17.3735 10.7075 16.8594 9.46837 15.9455 8.55445C15.0316 7.64053 13.7925 7.12644 12.5 7.12495ZM12.5 14.625C11.9808 14.625 11.4733 14.471 11.0416 14.1826C10.6099 13.8941 10.2735 13.4842 10.0748 13.0045C9.87614 12.5248 9.82415 11.997 9.92544 11.4878C10.0267 10.9786 10.2767 10.5109 10.6438 10.1438C11.011 9.77668 11.4787 9.52668 11.9879 9.42539C12.4971 9.3241 13.0249 9.37609 13.5045 9.57477C13.9842 9.77345 14.3942 10.1099 14.6826 10.5416C14.971 10.9733 15.125 11.4808 15.125 12C15.125 12.6961 14.8484 13.3638 14.3562 13.8561C13.8639 14.3484 13.1962 14.625 12.5 14.625ZM21.125 12.074V11.9259L22.4375 10.2843C22.5477 10.1468 22.624 9.98527 22.6603 9.81283C22.6966 9.64038 22.6919 9.46181 22.6466 9.29151C22.4097 8.39817 22.0557 7.5401 21.5938 6.73964C21.5048 6.58699 21.3811 6.45746 21.2327 6.36153C21.0843 6.26559 20.9154 6.20596 20.7397 6.18745L18.6509 5.95308L18.5469 5.84901L18.3125 3.75933C18.2939 3.58377 18.2342 3.41507 18.1382 3.26686C18.0423 3.11865 17.9128 2.9951 17.7603 2.9062C16.9598 2.44278 16.1014 2.0875 15.2075 1.84964C15.0371 1.80496 14.8585 1.80093 14.6862 1.8379C14.5139 1.87486 14.3527 1.95178 14.2156 2.06245L12.5741 3.37495H12.4259L10.7844 2.06245C10.6468 1.95228 10.4853 1.87596 10.3129 1.83964C10.1404 1.80333 9.96186 1.80804 9.79156 1.85339C8.89799 2.09171 8.03991 2.4473 7.23969 2.91089C7.08764 2.99942 6.95848 3.12239 6.86257 3.2699C6.76667 3.41742 6.70671 3.58537 6.6875 3.76026L6.45313 5.84901L6.34906 5.95308L4.25938 6.18745C4.08382 6.2061 3.91512 6.2658 3.76691 6.36173C3.6187 6.45765 3.49515 6.58711 3.40625 6.73964C2.94414 7.54036 2.59012 8.39876 2.35344 9.29245C2.30824 9.46261 2.30362 9.641 2.33993 9.81327C2.37624 9.98554 2.45247 10.1469 2.5625 10.2843L3.875 11.9259V12.074L2.5625 13.7156C2.45233 13.8531 2.37601 14.0146 2.33969 14.1871C2.30338 14.3595 2.30809 14.5381 2.35344 14.7084C2.59206 15.602 2.94796 16.4601 3.41188 17.2603C3.50032 17.4122 3.62314 17.5413 3.77048 17.6372C3.91782 17.7331 4.08558 17.7931 4.26031 17.8125L6.34906 18.045L6.45313 18.149L6.6875 20.2406C6.70615 20.4161 6.76585 20.5848 6.86178 20.733C6.9577 20.8812 7.08716 21.0048 7.23969 21.0937C8.04021 21.5571 8.89862 21.9124 9.7925 22.1503C9.96295 22.1949 10.1415 22.199 10.3138 22.162C10.4861 22.125 10.6473 22.0481 10.7844 21.9375L12.4259 20.625H12.5741L14.2156 21.9375C14.3532 22.0476 14.5147 22.1239 14.6871 22.1603C14.8596 22.1966 15.0381 22.1919 15.2084 22.1465C16.1018 21.9097 16.9598 21.5557 17.7603 21.0937C17.9127 21.0054 18.0422 20.8825 18.1385 20.735C18.2347 20.5875 18.295 20.4194 18.3144 20.2443L18.5469 18.1556L18.6509 18.0515L20.7406 17.8125C20.9157 17.793 21.0838 17.7328 21.2313 17.6366C21.3788 17.5403 21.5017 17.4108 21.59 17.2584C22.0534 16.4579 22.4087 15.5995 22.6466 14.7056C22.6914 14.5357 22.6959 14.3577 22.6596 14.1857C22.6233 14.0138 22.5472 13.8528 22.4375 13.7156L21.125 12.074ZM18.8638 11.6156C18.8788 11.8716 18.8788 12.1283 18.8638 12.3843C18.847 12.6626 18.9342 12.9373 19.1084 13.155L20.3122 14.6596C20.1986 14.996 20.063 15.3245 19.9063 15.6431L17.9909 15.8559C17.7136 15.8876 17.458 16.0213 17.2738 16.2309C17.1034 16.4228 16.9219 16.6043 16.73 16.7746C16.5204 16.9589 16.3867 17.2145 16.355 17.4918L16.1431 19.4062C15.8246 19.5635 15.4961 19.6998 15.1597 19.814L13.655 18.6093C13.4553 18.45 13.2073 18.3634 12.9519 18.3637C12.9294 18.3637 12.9069 18.3637 12.8844 18.3637C12.6283 18.3787 12.3717 18.3787 12.1156 18.3637C11.8375 18.3472 11.5631 18.434 11.345 18.6075L9.84031 19.8121C9.50397 19.6985 9.17545 19.5629 8.85688 19.4062L8.64406 17.4909C8.61236 17.2136 8.4787 16.958 8.26906 16.7737C8.07719 16.6034 7.89562 16.4218 7.72531 16.23C7.54105 16.0203 7.28543 15.8867 7.00813 15.855L5.09375 15.6431C4.93641 15.3246 4.80018 14.996 4.68594 14.6596L5.88969 13.155C6.06393 12.9373 6.15113 12.6626 6.13438 12.3843C6.11938 12.1283 6.11938 11.8716 6.13438 11.6156C6.15113 11.3373 6.06393 11.0626 5.88969 10.845L4.68781 9.34026C4.80144 9.00392 4.93705 8.6754 5.09375 8.35683L7.00906 8.14401C7.28637 8.11231 7.54198 7.97865 7.72625 7.76901C7.89656 7.57714 8.07813 7.39557 8.27 7.22526C8.47964 7.041 8.6133 6.78538 8.645 6.50808L8.85688 4.5937C9.1754 4.43636 9.50392 4.30013 9.84031 4.18589L11.345 5.39058C11.5631 5.564 11.8375 5.6508 12.1156 5.63433C12.3717 5.61933 12.6283 5.61933 12.8844 5.63433C13.1626 5.65134 13.4372 5.56448 13.655 5.39058L15.1597 4.18589C15.4961 4.30013 15.8246 4.43636 16.1431 4.5937L16.3559 6.50901C16.3876 6.78632 16.5213 7.04193 16.7309 7.2262C16.9228 7.39651 17.1044 7.57808 17.2747 7.76995C17.459 7.97959 17.7146 8.11325 17.9919 8.14495L19.9063 8.35683C20.0636 8.67535 20.1998 9.00387 20.3141 9.34026L19.1103 10.845C18.9354 11.0624 18.8475 11.337 18.8638 11.6156Z" fill="#14132B"/>
</svg>
